<svg width="82" height="86" viewBox="0 0 82 86" fill="none" xmlns="http://www.w3.org/2000/svg">
<path fill-rule="evenodd" clip-rule="evenodd" d="M5.125 8.0625C5.125 6.57823 6.27227 5.375 7.6875 5.375H74.3125C75.7277 5.375 76.875 6.57823 76.875 8.0625V53.75C76.875 55.2343 75.7277 56.4375 74.3125 56.4375H7.6875C6.27227 56.4375 5.125 55.2343 5.125 53.75V8.0625ZM10.25 10.75V51.0625H71.75V10.75H10.25Z" fill="white"/>
<path fill-rule="evenodd" clip-rule="evenodd" d="M41.0003 51.0625C41.857 51.0625 42.6571 51.5116 43.1324 52.2592L58.5074 76.4467C59.2924 77.6817 58.9742 79.3503 57.7967 80.1736C56.6191 80.997 55.0282 80.6632 54.2431 79.4283L41.0003 58.595L27.7574 79.4283C26.9724 80.6632 25.3814 80.997 24.2039 80.1736C23.0263 79.3503 22.7081 77.6817 23.4931 76.4467L38.8681 52.2592C39.3434 51.5116 40.1435 51.0625 41.0003 51.0625Z" fill="white"/>
<path fill-rule="evenodd" clip-rule="evenodd" d="M15.375 18.8125C15.375 17.3282 16.5223 16.125 17.9375 16.125H33.3125C34.7277 16.125 35.875 17.3282 35.875 18.8125C35.875 20.2968 34.7277 21.5 33.3125 21.5H17.9375C16.5223 21.5 15.375 20.2968 15.375 18.8125ZM15.375 29.5625C15.375 28.0782 16.5223 26.875 17.9375 26.875H33.3125C34.7277 26.875 35.875 28.0782 35.875 29.5625C35.875 31.0468 34.7277 32.25 33.3125 32.25H17.9375C16.5223 32.25 15.375 31.0468 15.375 29.5625ZM15.375 40.3125C15.375 38.8282 16.5223 37.625 17.9375 37.625H33.3125C34.7277 37.625 35.875 38.8282 35.875 40.3125C35.875 41.7968 34.7277 43 33.3125 43H17.9375C16.5223 43 15.375 41.7968 15.375 40.3125Z" fill="white"/>
<path fill-rule="evenodd" clip-rule="evenodd" d="M53.8125 21.5C49.5668 21.5 46.125 25.1097 46.125 29.5625C46.125 34.0153 49.5668 37.625 53.8125 37.625C58.0582 37.625 61.5 34.0153 61.5 29.5625C61.5 25.1097 58.0582 21.5 53.8125 21.5ZM41 29.5625C41 22.1412 46.7364 16.125 53.8125 16.125C60.8886 16.125 66.625 22.1412 66.625 29.5625C66.625 36.9838 60.8886 43 53.8125 43C46.7364 43 41 36.9838 41 29.5625Z" fill="#84BB29"/>
</svg>
