<svg width="93" height="93" viewBox="0 0 93 93" fill="none" xmlns="http://www.w3.org/2000/svg">
<path fill-rule="evenodd" clip-rule="evenodd" d="M17.5287 59.1838C18.9202 58.3838 20.6967 58.8634 21.4967 60.255C24.0652 64.7232 27.7236 68.4681 32.1306 71.1403C36.5376 73.8125 41.5496 75.325 46.6991 75.5367C48.3029 75.6026 49.5495 76.9561 49.4836 78.5598C49.4176 80.1636 48.0641 81.4102 46.4604 81.3443C40.33 81.0922 34.3633 79.2917 29.1169 76.1104C23.8705 72.9292 19.5152 68.4711 16.4574 63.1518C15.6575 61.7602 16.1371 59.9837 17.5287 59.1838Z" fill="white"/>
<path fill-rule="evenodd" clip-rule="evenodd" d="M78.3776 30.91C76.9861 31.7099 75.2095 31.2303 74.4096 29.8388C71.841 25.3706 68.1826 21.6257 63.7756 18.9535C59.3687 16.2813 54.3566 14.7688 49.2071 14.5571C47.6034 14.4911 46.3568 13.1376 46.4227 11.5339C46.4886 9.93017 47.8421 8.68355 49.4459 8.74948C55.5763 9.00149 61.5429 10.8021 66.7894 13.9833C72.0358 17.1645 76.391 21.6227 79.4488 26.942C80.2487 28.3335 79.7691 30.1101 78.3776 30.91Z" fill="white"/>
<path fill-rule="evenodd" clip-rule="evenodd" d="M23.25 11.625C20.0398 11.625 17.4375 14.2273 17.4375 17.4375C17.4375 20.6477 20.0398 23.25 23.25 23.25C26.4602 23.25 29.0625 20.6477 29.0625 17.4375C29.0625 14.2273 26.4602 11.625 23.25 11.625ZM11.625 17.4375C11.625 11.0172 16.8297 5.8125 23.25 5.8125C29.6703 5.8125 34.875 11.0172 34.875 17.4375C34.875 23.8578 29.6703 29.0625 23.25 29.0625C16.8297 29.0625 11.625 23.8578 11.625 17.4375Z" fill="#84BB29"/>
<path fill-rule="evenodd" clip-rule="evenodd" d="M69.75 43.5938C66.5398 43.5938 63.9375 46.1961 63.9375 49.4062C63.9375 52.6164 66.5398 55.2188 69.75 55.2188C72.9602 55.2188 75.5625 52.6164 75.5625 49.4062C75.5625 46.1961 72.9602 43.5938 69.75 43.5938ZM58.125 49.4062C58.125 42.9859 63.3297 37.7812 69.75 37.7812C76.1703 37.7812 81.375 42.9859 81.375 49.4062C81.375 55.8266 76.1703 61.0312 69.75 61.0312C63.3297 61.0312 58.125 55.8266 58.125 49.4062Z" fill="#84BB29"/>
<path fill-rule="evenodd" clip-rule="evenodd" d="M23.25 37.7812C16.8297 37.7812 11.625 42.9859 11.625 49.4062V52.3125C11.625 53.9176 10.3238 55.2188 8.71875 55.2188C7.11367 55.2188 5.8125 53.9176 5.8125 52.3125V49.4062C5.8125 39.7758 13.6195 31.9688 23.25 31.9688C32.8805 31.9688 40.6875 39.7758 40.6875 49.4062V52.3125C40.6875 53.9176 39.3863 55.2188 37.7812 55.2188C36.1762 55.2188 34.875 53.9176 34.875 52.3125V49.4062C34.875 42.9859 29.6703 37.7812 23.25 37.7812Z" fill="#84BB29"/>
<path fill-rule="evenodd" clip-rule="evenodd" d="M69.75 69.75C63.3297 69.75 58.125 74.9547 58.125 81.375V84.2812C58.125 85.8863 56.8238 87.1875 55.2188 87.1875C53.6137 87.1875 52.3125 85.8863 52.3125 84.2812V81.375C52.3125 71.7445 60.1195 63.9375 69.75 63.9375C79.3805 63.9375 87.1875 71.7445 87.1875 81.375V84.2812C87.1875 85.8863 85.8863 87.1875 84.2812 87.1875C82.6762 87.1875 81.375 85.8863 81.375 84.2812V81.375C81.375 74.9547 76.1703 69.75 69.75 69.75Z" fill="#84BB29"/>
</svg>
