<svg width="80" height="80" viewBox="0 0 80 80" fill="none" xmlns="http://www.w3.org/2000/svg">
<path fill-rule="evenodd" clip-rule="evenodd" d="M7.5 5C8.88071 5 10 6.11929 10 7.5V70H72.5C73.8807 70 75 71.1193 75 72.5C75 73.8807 73.8807 75 72.5 75H7.5C6.11929 75 5 73.8807 5 72.5V7.5C5 6.11929 6.11929 5 7.5 5Z" fill="white"/>
<path fill-rule="evenodd" clip-rule="evenodd" d="M73.3779 15.1592C74.6707 15.644 75.3257 17.0851 74.8409 18.3779L63.5909 48.3779C63.225 49.3536 62.2922 50.0001 61.2501 50.0001H48.8381L39.5802 63.8868C39.1648 64.51 38.4918 64.9141 37.7465 64.9879C37.0011 65.0617 36.262 64.7975 35.7323 64.2678L28.5429 57.0784L19.035 64.4735C17.9451 65.3211 16.3744 65.1248 15.5267 64.0349C14.6791 62.9451 14.8754 61.3744 15.9653 60.5267L27.2153 51.7767C28.2105 51.0026 29.6264 51.0908 30.5179 51.9823L37.1116 58.576L45.42 46.1133C45.8837 45.4178 46.6642 45.0001 47.5001 45.0001H59.5176L70.1593 16.6223C70.6441 15.3295 72.0851 14.6744 73.3779 15.1592Z" fill="#84BB29"/>
</svg>
