<svg width="87" height="87" viewBox="0 0 87 87" fill="none" xmlns="http://www.w3.org/2000/svg">
<path fill-rule="evenodd" clip-rule="evenodd" d="M5.4375 13.5938C5.4375 9.08918 9.08918 5.4375 13.5938 5.4375H73.4062C77.9108 5.4375 81.5625 9.08918 81.5625 13.5938C81.5625 18.0983 77.9108 21.75 73.4062 21.75H13.5938C9.08918 21.75 5.4375 18.0983 5.4375 13.5938ZM13.5938 10.875C12.0922 10.875 10.875 12.0922 10.875 13.5938C10.875 15.0953 12.0922 16.3125 13.5938 16.3125H73.4062C74.9078 16.3125 76.125 15.0953 76.125 13.5938C76.125 12.0922 74.9078 10.875 73.4062 10.875H13.5938Z" fill="#FAFAFA"/>
<path fill-rule="evenodd" clip-rule="evenodd" d="M5.4375 57.0938C5.4375 52.5892 9.08918 48.9375 13.5938 48.9375H73.4062C77.9108 48.9375 81.5625 52.5892 81.5625 57.0938C81.5625 61.5983 77.9108 65.25 73.4062 65.25H13.5938C9.08918 65.25 5.4375 61.5983 5.4375 57.0938ZM13.5938 54.375C12.0922 54.375 10.875 55.5922 10.875 57.0938C10.875 58.5953 12.0922 59.8125 13.5938 59.8125H73.4062C74.9078 59.8125 76.125 58.5953 76.125 57.0938C76.125 55.5922 74.9078 54.375 73.4062 54.375H13.5938Z" fill="#FAFAFA"/>
<path fill-rule="evenodd" clip-rule="evenodd" d="M10.875 19.0312C10.875 17.5297 12.0922 16.3125 13.5938 16.3125H73.4062C74.9078 16.3125 76.125 17.5297 76.125 19.0312V51.6562C76.125 53.1578 74.9078 54.375 73.4062 54.375H13.5938C12.0922 54.375 10.875 53.1578 10.875 51.6562V19.0312ZM16.3125 21.75V48.9375H70.6875V21.75H16.3125Z" fill="#FAFAFA"/>
<path fill-rule="evenodd" clip-rule="evenodd" d="M43.5012 59.8125C44.3746 59.8125 45.1948 60.232 45.7058 60.9402L57.4784 77.2527C58.3571 78.4703 58.0824 80.1696 56.8648 81.0483C55.6472 81.927 53.9479 81.6523 53.0692 80.4348L43.5012 67.177L33.9333 80.4348C33.0546 81.6523 31.3553 81.927 30.1377 81.0483C28.9201 80.1696 28.6454 78.4703 29.5241 77.2527L41.2967 60.9402C41.8077 60.232 42.6279 59.8125 43.5012 59.8125Z" fill="#FAFAFA"/>
<path d="M49 33.7679C50.3333 34.5377 50.3333 36.4623 49 37.2321L39.25 42.8612C37.9167 43.631 36.25 42.6688 36.25 41.1292L36.25 29.8708C36.25 28.3312 37.9167 27.369 39.25 28.1388L49 33.7679Z" fill="#84BB29"/>
</svg>
